HIERARCHY
ROOT pelvis
{
	OFFSET 0.00 0.00 0.00
	CHANNELS 6 Xposition Yposition Zposition Xrotation Yrotation Zrotation
	JOINT lfemur
	{
		OFFSET 0.00000 4.04436 0.00000
		CHANNELS 3 Xrotation Yrotation Zrotation
		JOINT ltibia
		{
			OFFSET 0.00000 0.00000 -16.29375
			CHANNELS 3 Xrotation Yrotation Zrotation
			JOINT lfoot
			{
				OFFSET 0.00000 0.00000 -15.07135
				CHANNELS 3 Xrotation Yrotation Zrotation
				JOINT ltoes
				{
					OFFSET 4.08523 0.00000 0.00000
					CHANNELS 3 Xrotation Yrotation Zrotation
				}
			}
		}
	}
	JOINT rfemur
	{
		OFFSET 0.00000 -4.04436 0.00000
		CHANNELS 3 Xrotation Yrotation Zrotation
		JOINT rtibia
		{
			OFFSET 0.00000 0.00000 -16.29375
			CHANNELS 3 Xrotation Yrotation Zrotation
			JOINT rfoot
			{
				OFFSET 0.00000 0.00000 -15.07135
				CHANNELS 3 Xrotation Yrotation Zrotation
				JOINT rtoes
				{
					OFFSET 4.08523 0.00000 0.00000
					CHANNELS 3 Xrotation Yrotation Zrotation
				}
			}
		}
	}
	JOINT thorax
	{
		OFFSET -1.96850 0.00000 3.38723
		CHANNELS 6 Xposition Yposition Zposition Xrotation Yrotation Zrotation
		JOINT head
		{
			OFFSET 0.00000 0.00000 16.93583
			CHANNELS 6 Xposition Yposition Zposition Xrotation Yrotation Zrotation
		}
		JOINT lclavicle
		{
			OFFSET 0.00000 0.00000 14.46426
			CHANNELS 3 Xrotation Yrotation Zrotation
			JOINT lhumerus
			{
				OFFSET 0.00000 6.07503 0.73740
				CHANNELS 3 Xrotation Yrotation Zrotation
				JOINT lradius
				{
					OFFSET 0.00000 0.00000 -10.44175
					CHANNELS 3 Xrotation Yrotation Zrotation
					JOINT lhand
					{
						OFFSET 0.00000 0.00000 -9.67100
						CHANNELS 3 Xrotation Yrotation Zrotation
					}
				}
			}
		}
		JOINT rclavicle
		{
			OFFSET 0.00000 0.00000 14.46426
			CHANNELS 3 Xrotation Yrotation Zrotation
			JOINT rhumerus
			{
				OFFSET 0.00000 -6.07503 0.73740
				CHANNELS 3 Xrotation Yrotation Zrotation
				JOINT rradius
				{
					OFFSET 0.00000 0.00000 -10.44175
					CHANNELS 3 Xrotation Yrotation Zrotation
					JOINT rhand
					{
						OFFSET 0.00000 0.00000 -9.67100
						CHANNELS 3 Xrotation Yrotation Zrotation
					}
				}
			}
		}
	}
}
MOTION
Frames: 15
Frame Time: 0.008333
 42.0669 10.7405 30.6612 -3.7624 -13.5594 -100.3117 -15.7883 -13.8212 14.2133 -0.0000 37.7399 0.0000 0.0000 -0.7826 11.5234 0.0000 -15.6608 -0.0000 -7.7677 -23.2731 12.8025 -0.0000 56.0607 0.0000 -0.0000 -8.4817 -10.8094 0.0000 -21.0650 0.0000 38.5167 13.0570 34.9994 -26.8485 9.3564 26.0835 42.5850 9.6058 50.8573 -2.8887 -23.6320 -12.8116 -6.8614 0.0000 6.7396 46.2038 1.2752 -5.0832 -180.0000 -55.5644 123.3473 -37.9906 3.0426 -0.0000 0.1676 0.0000 12.9884 -43.7581 -6.7537 -58.7492 0.0000 -79.4767 60.7281 0.9899 1.4940 -0.0000
 42.1366 10.7478 30.5629 -3.9228 -14.0065 -100.4106 -16.4456 -14.0253 13.9828 -0.0000 38.1769 0.0000 -0.0000 -1.3490 11.9627 0.0000 -15.0963 0.0000 -8.2878 -23.6300 12.8149 -0.0000 56.8919 0.0000 -0.0000 -9.0614 -10.7368 0.0000 -21.0055 0.0000 38.5326 13.0758 34.8834 -27.4178 9.3769 27.1744 42.6107 9.6303 50.7820 -2.7117 -23.5323 -13.9244 -7.8458 0.0000 6.9455 44.2994 -0.7927 -5.8036 -180.0000 -52.7072 123.7586 -38.2103 2.8994 -0.0000 0.5038 0.0000 13.0962 -43.4970 -5.9433 -61.2603 -0.0000 -78.8549 60.3888 1.8239 1.7109 -0.0000
 42.1953 10.7462 30.5098 -3.9546 -14.2940 -100.3429 -16.9600 -14.1479 13.6295 -0.0000 38.3195 0.0000 0.0000 -1.6340 12.3548 0.0000 -14.8291 -0.0000 -8.6383 -23.8482 12.8092 -0.0000 57.3559 0.0000 0.0000 -9.3254 -10.8478 0.0000 -21.1058 0.0000 38.5548 13.0840 34.8079 -27.7607 9.3362 28.0614 42.6317 9.6675 50.7454 -2.5046 -23.3051 -14.9943 -8.6604 0.0000 7.0267 42.0770 -2.7316 -6.7927 -180.0000 -50.0878 124.1400 -38.2384 2.6613 -0.0000 0.9780 0.0000 12.9936 -43.0371 -5.1902 -63.3976 0.0000 -78.8277 59.9241 2.3591 1.7717 0.0000
 42.2432 10.7358 30.4961 -3.8949 -14.3296 -100.0857 -17.2437 -14.1836 13.1273 -0.0000 38.3096 0.0000 -0.0000 -1.8111 12.6700 0.0000 -14.4643 0.0000 -8.7575 -23.8473 12.7354 -0.0000 57.4167 0.0000 0.0000 -9.3980 -11.0519 0.0000 -21.1216 -0.0000 38.5992 13.0800 34.7798 -27.6577 9.2557 28.9231 42.6489 9.7078 50.7488 -2.4522 -22.9189 -16.2160 -9.6534 0.0000 6.4378 39.9818 -4.2088 -7.6926 -180.0000 -47.6070 124.5837 -38.2781 2.4151 -0.0000 1.5244 -0.0000 12.8629 -42.3387 -4.1115 -65.4422 -0.0000 -79.5127 59.3347 3.1187 1.8471 0.0000
 42.2833 10.7131 30.5269 -3.7443 -14.3194 -99.6185 -17.5003 -14.0797 12.4917 -0.0000 37.9650 0.0000 0.0000 -1.6826 12.8884 0.0000 -14.2521 0.0000 -8.9035 -23.7031 12.4801 -0.0000 57.1764 0.0000 0.0000 -9.2629 -11.3020 0.0000 -21.1358 -0.0000 38.6547 13.0725 34.7939 -27.4305 9.1727 29.4064 42.6613 9.7515 50.7956 -2.3574 -22.4846 -17.2571 -10.4584 0.0000 5.8872 37.5798 -5.6463 -8.7613 180.0000 -45.4278 124.9565 -38.3736 2.0040 -0.0000 2.1799 0.0000 12.5373 -41.4428 -3.2334 -66.9592 -0.0000 -80.7183 58.6308 3.5056 1.9993 0.0000
 42.3142 10.6807 30.5946 -3.5102 -14.1885 -98.8852 -17.6458 -13.8523 11.7137 -0.0000 37.3924 0.0000 0.0000 -1.3533 12.9369 0.0000 -14.1471 -0.0000 -9.0337 -23.3775 11.9591 -0.0000 56.6309 0.0000 0.0000 -9.0492 -11.5379 0.0000 -20.9787 -0.0000 38.7285 13.0575 34.8421 -26.9494 9.1014 29.4338 42.6659 9.7917 50.8787 -2.2686 -21.9938 -18.1256 -11.0523 0.0000 5.2788 34.9481 -6.9058 -9.7171 -180.0000 -43.4342 125.2767 -38.8514 1.8105 -0.0000 2.8871 0.0000 12.1649 -40.3474 -2.4280 -68.0207 0.0000 -82.4327 57.8362 3.5589 2.2390 0.0000
 42.3178 10.6494 30.6927 -3.2281 -13.5927 -97.7513 -17.3042 -13.5504 10.7325 -0.0000 36.8943 0.0000 0.0000 -0.9957 12.8201 0.0000 -14.0675 -0.0000 -8.7225 -22.6464 11.2824 -0.0000 55.5645 0.0000 0.0000 -8.5537 -12.0467 0.0000 -21.0681 0.0000 38.8126 13.0004 34.9214 -25.8597 9.0342 28.9477 42.6627 9.8343 51.0018 -2.1319 -21.3036 -18.8130 -11.4966 0.0000 4.5973 32.3101 -7.9428 -10.8491 180.0000 -41.7923 126.0168 -38.8599 1.5562 -0.0000 3.5571 0.0000 11.7979 -38.8662 -1.4537 -68.5857 -0.0000 -84.5516 56.8397 3.1545 2.6035 -0.0000
 42.3175 10.6055 30.8227 -2.9743 -12.9046 -96.5592 -16.8274 -12.9863 9.9185 -0.0000 35.9778 0.0000 0.0000 -0.4557 12.4344 0.0000 -14.2487 -0.0000 -8.3808 -21.7259 10.5018 -0.0000 54.2141 0.0000 0.0000 -7.9949 -12.4063 0.0000 -20.9142 -0.0000 38.9328 12.9434 35.0468 -24.5292 8.9787 28.3058 42.6547 9.8712 51.1588 -2.1119 -20.5849 -19.4768 -12.1524 0.0000 3.8362 29.9746 -9.0636 -11.9590 -180.0000 -40.4897 126.8047 -38.6739 1.3840 -0.0000 4.3871 0.0000 11.5228 -37.4912 -0.2959 -69.0168 0.0000 -86.9520 55.8733 2.5706 2.6940 0.0000
 42.3062 10.5562 30.9762 -2.7291 -12.2479 -95.2133 -16.3653 -12.3148 9.0120 -0.0000 34.8685 0.0000 -0.0000 0.2969 11.9807 0.0000 -14.4706 0.0000 -8.0926 -20.6448 9.6198 -0.0000 52.6183 0.0000 0.0000 -7.3286 -12.8175 0.0000 -20.9070 0.0000 39.0554 12.8819 35.1960 -23.2049 8.9447 27.3109 42.6396 9.9059 51.3459 -2.0578 -19.9039 -19.9346 -12.5601 0.0000 3.1862 27.5466 -10.3138 -13.0130 180.0000 -39.4874 127.7573 -38.5442 1.2418 -0.0000 5.1602 0.0000 11.1901 -35.9072 0.8124 -69.0621 0.0000 -89.6367 54.9312 2.0587 3.0470 -0.0000
 42.2742 10.4984 31.1503 -2.4707 -11.5412 -93.7783 -15.7473 -11.5652 8.2305 -0.0000 33.5939 0.0000 0.0000 1.1362 11.2994 0.0000 -14.6192 -0.0000 -7.6745 -19.3940 8.8213 -0.0000 50.6847 0.0000 0.0000 -6.4669 -13.3388 0.0000 -21.1295 -0.0000 39.1941 12.8220 35.3695 -21.7677 8.9146 26.0350 42.6220 9.9326 51.5583 -2.0531 -19.2954 -20.2911 -12.8770 -0.0000 2.5116 25.1946 -11.6578 -13.9586 -180.0000 -38.7895 128.8508 -38.3068 1.0130 -0.0000 5.9643 0.0000 10.8474 -34.3529 1.9116 -68.8877 180.0000 -87.5316 -125.8514 1.8091 3.4916 -0.0000
 42.2427 10.4432 31.3360 -2.1847 -10.7909 -92.1751 -15.1130 -10.7798 7.2858 -0.0000 32.1574 0.0000 -0.0000 2.1262 10.6125 0.0000 -14.9285 0.0000 -7.2885 -18.0913 7.7887 -0.0000 48.6062 0.0000 0.0000 -5.6411 -13.7655 0.0000 -21.0256 -0.0000 39.3459 12.7597 35.5539 -20.2104 8.8544 24.4526 42.5929 9.9583 51.7824 -2.0864 -18.6597 -20.5053 -12.9785 0.0000 1.8656 22.8908 -13.1149 -14.9326 -180.0000 -38.3147 129.6323 -37.8845 1.0298 -0.0000 6.6655 -0.0000 10.5451 -32.6617 3.0674 -68.6297 180.0000 -84.5973 -126.3939 1.6255 3.8293 -0.0000
 42.2084 10.3889 31.5299 -1.8654 -9.9793 -90.4935 -14.4205 -10.0145 6.2111 -0.0000 30.6339 0.0000 -0.0000 3.1423 9.9401 0.0000 -15.2268 -0.0000 -6.8358 -16.7507 6.7064 -0.0000 46.3271 0.0000 -0.0000 -4.6120 -14.1635 0.0000 -21.1428 -0.0000 39.5207 12.6922 35.7435 -18.4952 8.7094 22.5969 42.5549 9.9810 52.0149 -2.2223 -18.0050 -20.6223 -12.9624 0.0000 1.2597 20.7075 -14.6795 -15.8149 -180.0000 -38.1065 130.2880 -37.2219 0.9102 -0.0000 7.2776 -0.0000 10.2800 -30.9407 4.2442 -68.3026 180.0000 -81.6533 -126.5889 1.7488 4.1575 0.0000
 42.1694 10.3357 31.7286 -1.4963 -9.1756 -88.7679 -13.7217 -9.2966 5.0717 -0.0000 29.0048 0.0000 -0.0000 4.2734 9.3053 0.0000 -15.5997 0.0000 -6.3608 -15.4339 5.6151 -0.0000 43.9220 0.0000 0.0000 -3.5214 -14.5692 0.0000 -21.2454 0.0000 39.7068 12.6343 35.9363 -16.7650 8.4983 20.4819 42.5115 10.0011 52.2470 -2.3666 -17.4412 -20.5301 -12.7710 0.0000 0.7420 18.6732 -16.4154 -16.7182 -180.0000 -38.1448 130.7219 -35.9948 0.9381 -0.0000 7.8658 -0.0000 10.0248 -29.2918 5.2949 -67.9403 180.0000 -78.7521 -126.5231 2.0463 4.4079 0.0000
 42.1296 10.2851 31.9272 -1.0840 -8.3458 -87.0226 -13.0023 -8.6570 3.8344 -0.0000 27.3390 -0.0000 0.0000 5.4424 8.7401 0.0000 -15.9518 -0.0000 -5.8357 -14.1621 4.5189 -0.0000 41.4186 0.0000 0.0000 -2.3315 -14.9728 0.0000 -21.3668 0.0000 39.9139 12.5842 36.1276 -14.9514 8.1947 18.1604 42.4607 10.0186 52.4728 -2.5922 -16.9227 -20.2833 -12.4683 0.0000 0.2740 16.8873 -18.2667 -17.6057 180.0000 -38.4127 130.9586 -34.2040 1.0367 -0.0000 8.4170 0.0000 9.7768 -27.7673 6.2498 -67.5525 180.0000 -75.9474 -126.2669 2.4444 4.5758 -0.0000
 42.0895 10.2378 32.1218 -0.6388 -7.5058 -85.3045 -12.2759 -8.1127 2.5432 -0.0000 25.6738 -0.0000 0.0000 6.6346 8.2504 0.0000 -16.2804 0.0000 -5.2779 -12.9602 3.4253 -0.0000 38.8609 0.0000 0.0000 -1.0618 -15.3451 -0.0000 -21.4678 -0.0000 40.1406 12.5414 36.3127 -13.0893 7.7879 15.6848 42.4036 10.0339 52.6869 -2.8816 -16.4565 -19.8696 -12.0436 0.0000 -0.1154 15.3273 -20.2167 -18.4506 -180.0000 -38.8864 130.9559 -32.0233 1.1604 -0.0000 8.9161 -0.0000 9.5257 -26.3770 7.0841 -67.1133 -180.0000 -73.2772 -125.9088 2.7735 4.6490 0.0000
